<svg xmlns="http://www.w3.org/2000/svg" x="0px" y="0px" width="100" height="100" viewBox="0,0,256,256">
<g fill="none" fill-rule="nonzero" stroke="none" stroke-width="none" stroke-linecap="none" stroke-linejoin="none" stroke-miterlimit="10" stroke-dasharray="" stroke-dashoffset="0" font-family="none" font-weight="none" font-size="none" text-anchor="none" style="mix-blend-mode: normal"><g transform="scale(4,4)"><circle cx="32" cy="32" r="23" fill="#20c997" stroke="none" stroke-width="1" stroke-linecap="butt" stroke-linejoin="miter"></circle><ellipse cx="32" cy="61" rx="19" ry="3" fill="#000000" stroke="none" stroke-width="1" stroke-linecap="butt" stroke-linejoin="miter" opacity="0.3"></ellipse><path d="M32,14c2.577,0 4.674,-1.957 4.946,-4.461c-1.594,-0.349 -3.247,-0.539 -4.946,-0.539c-12.703,0 -23,10.297 -23,23c0,1.699 0.19,3.352 0.539,4.946c2.505,-0.272 4.461,-2.369 4.461,-4.946c0,-9.925 8.075,-18 18,-18z" fill="#ffffff" stroke="none" stroke-width="1" stroke-linecap="butt" stroke-linejoin="miter" opacity="0.3"></path><path d="M15.047,23.427c1.878,-3.699 4.932,-6.705 8.666,-8.522" fill="none" stroke="#ffffff" stroke-width="3" stroke-linecap="round" stroke-linejoin="round"></path><path d="M54.461,27.054c-2.505,0.272 -4.461,2.369 -4.461,4.946c0,9.925 -8.075,18 -18,18c-2.577,0 -4.674,1.957 -4.946,4.461c1.594,0.349 3.247,0.539 4.946,0.539c12.703,0 23,-10.297 23,-23c0,-1.699 -0.19,-3.352 -0.539,-4.946z" fill="#000000" stroke="none" stroke-width="1" stroke-linecap="butt" stroke-linejoin="miter" opacity="0.15"></path><path d="M25,52l-13.183,3.877c-1.648,0.485 -3.179,-1.047 -2.695,-2.695l3.878,-13.182z" fill="#20c997" stroke="none" stroke-width="1" stroke-linecap="butt" stroke-linejoin="miter"></path><path d="M27.105,36.889c-9.135,-9.135 -5.665,-13.845 -4.378,-15.131c1.007,-1.007 3.012,-1.007 4.018,0c0.049,0.049 2.296,2.296 2.296,2.296c1.007,1.007 1.722,2.87 0.574,4.018l-0.915,0.717c-0.556,0.556 -0.72,1.334 -0.227,1.947c0.589,0.733 1.39,1.618 2.279,2.506c0.889,0.888 1.697,1.612 2.429,2.201c0.612,0.493 1.466,0.402 2.021,-0.153l0.728,-0.903c1.007,-1.007 2.437,-1.007 3.445,0c0,0 2.822,2.822 2.87,2.87c1.007,1.007 1.007,3.012 0,4.018c-1.287,1.287 -6.005,4.748 -15.14,-4.386z" fill="#ffffff" stroke="none" stroke-width="1" stroke-linecap="butt" stroke-linejoin="miter"></path></g></g>
</svg>